<svg xmlns="http://www.w3.org/2000/svg" xmlns:xlink="http://www.w3.org/1999/xlink" width="500" zoomAndPan="magnify" viewBox="0 0 375 374.999991" height="500" preserveAspectRatio="xMidYMid meet" version="1.0"><defs><g/><clipPath id="c5cb322ba8"><path d="M 154 165 L 288 165 L 288 185.84375 L 154 185.84375 Z M 154 165 " clip-rule="nonzero"/></clipPath></defs><path fill="#e72729" d="M 89.851562 167.402344 C 92.140625 166.988281 95.058594 166.367188 98.285156 165.640625 L 84.746094 165.746094 L 108.175781 163.363281 L 110.15625 162.949219 L 96.828125 163.050781 L 122.027344 160.253906 L 123.484375 159.945312 L 110.261719 160.046875 L 132.753906 158.078125 C 133.273438 157.976562 133.691406 157.871094 134.210938 157.769531 L 121.507812 157.5625 L 139.519531 156.214844 L 132.648438 155.59375 L 154.203125 154.660156 C 182.113281 151.34375 212.101562 152.484375 232.199219 168.128906 C 229.386719 166.78125 226.679688 165.433594 223.867188 164.398438 L 200.542969 164.605469 L 220.847656 163.257812 L 195.648438 162.429688 L 213.976562 161.082031 L 186.277344 160.566406 L 205.4375 159.117188 C 205.125 159.011719 204.8125 159.011719 204.5 158.90625 L 179.402344 158.699219 L 194.917969 157.5625 C 179.402344 156.109375 163.574219 157.664062 147.644531 160.773438 C 149.621094 166.058594 154.726562 169.683594 163.261719 171.546875 C 138.480469 173 117.445312 164.398438 89.851562 167.402344 Z M 89.851562 167.402344 " fill-opacity="1" fill-rule="evenodd"/><g clip-path="url(#c5cb322ba8)"><path fill="#e72729" d="M 255.003906 176.3125 L 244.695312 178.074219 L 258.542969 177.972656 C 259.378906 178.488281 260.105469 179.007812 260.835938 179.523438 L 239.90625 182.117188 L 263.125 181.90625 C 263.648438 182.53125 263.960938 183.152344 264.375 183.875 C 263.855469 180.25 263.335938 179.523438 261.773438 177.765625 C 270.3125 179.007812 278.851562 181.804688 287.390625 185.84375 C 262.710938 160.046875 195.960938 175.898438 155.558594 165.640625 C 157.222656 168.128906 162.015625 170.304688 168.78125 172.167969 L 154.933594 173.101562 L 172.53125 173.101562 C 173.675781 173.414062 174.925781 173.621094 176.175781 173.929688 L 165.347656 175.171875 L 183.152344 175.277344 C 183.671875 175.382812 184.296875 175.484375 184.820312 175.589844 L 174.925781 177.039062 L 192.628906 176.832031 C 193.253906 176.933594 193.984375 177.039062 194.710938 177.140625 L 184.296875 178.386719 L 202.625 178.179688 C 212.101562 179.421875 222.097656 180.457031 231.679688 181.285156 C 234.800781 177.347656 240.632812 174.65625 247.296875 174.65625 C 250.109375 175.070312 252.714844 175.589844 255.003906 176.3125 Z M 255.003906 176.3125 " fill-opacity="1" fill-rule="evenodd"/></g><path fill="#e72729" d="M 112.96875 174.242188 L 91.203125 175.691406 L 110.675781 176.003906 C 108.488281 177.972656 107.136719 180.457031 106.824219 183.152344 C 109.738281 178.28125 116.714844 174.863281 124.839844 174.863281 C 132.960938 174.863281 139.9375 178.28125 142.855469 183.152344 C 142.019531 176.3125 134.316406 171.03125 124.839844 171.03125 C 122.964844 171.03125 121.089844 171.238281 119.320312 171.652344 L 100.886719 172.894531 L 114.007812 173.621094 C 113.59375 173.828125 113.28125 174.035156 112.96875 174.242188 Z M 112.96875 174.242188 " fill-opacity="1" fill-rule="evenodd"/><g fill="#ffffff" fill-opacity="1"><g transform="translate(75.874177, 219.25153)"><g><path d="M 0.289062 0 L 2.609375 0 C 2.785156 0 2.898438 -0.117188 2.898438 -0.289062 L 2.898438 -5.800781 L 18.613281 -5.800781 C 18.847656 -5.800781 18.960938 -5.914062 18.960938 -6.089844 L 18.960938 -8.410156 C 18.960938 -8.582031 18.847656 -8.699219 18.613281 -8.699219 L 2.898438 -8.699219 L 2.898438 -11.019531 C 2.898438 -11.335938 3.160156 -11.597656 3.480469 -11.597656 L 20.007812 -11.597656 C 20.179688 -11.597656 20.296875 -11.714844 20.296875 -11.886719 L 20.296875 -14.207031 C 20.296875 -14.382812 20.179688 -14.496094 20.007812 -14.496094 L 2.957031 -14.496094 C 1.246094 -14.496094 0 -13.25 0 -11.539062 L 0 -0.289062 C 0 -0.117188 0.117188 0 0.289062 0 Z M 0.289062 0 "/></g></g></g><g fill="#ffffff" fill-opacity="1"><g transform="translate(101.967917, 219.25153)"><g><path d="M 2.957031 0 L 17.339844 0 C 19.050781 0 20.296875 -1.246094 20.296875 -2.957031 L 20.296875 -14.207031 C 20.296875 -14.382812 20.179688 -14.496094 20.007812 -14.496094 L 17.6875 -14.496094 C 17.511719 -14.496094 17.398438 -14.382812 17.398438 -14.207031 L 17.398438 -3.480469 C 17.398438 -3.160156 17.136719 -2.898438 16.816406 -2.898438 L 3.480469 -2.898438 C 3.160156 -2.898438 2.898438 -3.160156 2.898438 -3.480469 L 2.898438 -14.207031 C 2.898438 -14.382812 2.785156 -14.496094 2.609375 -14.496094 L 0.289062 -14.496094 C 0.117188 -14.496094 0 -14.382812 0 -14.207031 L 0 -2.957031 C 0 -1.246094 1.246094 0 2.957031 0 Z M 2.957031 0 "/></g></g></g><g fill="#ffffff" fill-opacity="1"><g transform="translate(128.061657, 219.25153)"><g><path d="M 8.988281 0 L 11.308594 0 C 11.480469 0 11.597656 -0.117188 11.597656 -0.289062 L 11.597656 -11.597656 L 20.007812 -11.597656 C 20.179688 -11.597656 20.296875 -11.714844 20.296875 -11.886719 L 20.296875 -14.207031 C 20.296875 -14.382812 20.179688 -14.496094 20.007812 -14.496094 L 0.289062 -14.496094 C 0.117188 -14.496094 0 -14.382812 0 -14.207031 L 0 -11.886719 C 0 -11.714844 0.117188 -11.597656 0.289062 -11.597656 L 8.699219 -11.597656 L 8.699219 -0.289062 C 8.699219 -0.117188 8.816406 0 8.988281 0 Z M 8.988281 0 "/></g></g></g><g fill="#ffffff" fill-opacity="1"><g transform="translate(154.155398, 219.25153)"><g><path d="M 2.957031 0 L 17.339844 0 C 19.050781 0 20.296875 -1.246094 20.296875 -2.957031 L 20.296875 -14.207031 C 20.296875 -14.382812 20.179688 -14.496094 20.007812 -14.496094 L 17.6875 -14.496094 C 17.511719 -14.496094 17.398438 -14.382812 17.398438 -14.207031 L 17.398438 -3.480469 C 17.398438 -3.160156 17.136719 -2.898438 16.816406 -2.898438 L 3.480469 -2.898438 C 3.160156 -2.898438 2.898438 -3.160156 2.898438 -3.480469 L 2.898438 -14.207031 C 2.898438 -14.382812 2.785156 -14.496094 2.609375 -14.496094 L 0.289062 -14.496094 C 0.117188 -14.496094 0 -14.382812 0 -14.207031 L 0 -2.957031 C 0 -1.246094 1.246094 0 2.957031 0 Z M 2.957031 0 "/></g></g></g><g fill="#ffffff" fill-opacity="1"><g transform="translate(180.249138, 219.25153)"><g><path d="M 0.289062 0 L 2.609375 0 C 2.785156 0 2.898438 -0.117188 2.898438 -0.289062 L 2.898438 -5.800781 L 13.859375 -5.800781 L 15.890625 0 L 19.078125 0 L 17.050781 -5.800781 L 17.339844 -5.800781 C 19.050781 -5.800781 20.296875 -7.046875 20.296875 -8.757812 L 20.296875 -11.539062 C 20.296875 -13.25 19.050781 -14.496094 17.339844 -14.496094 L 0.289062 -14.496094 C 0.117188 -14.496094 0 -14.382812 0 -14.207031 L 0 -0.289062 C 0 -0.117188 0.117188 0 0.289062 0 Z M 2.898438 -8.699219 L 2.898438 -11.597656 L 16.816406 -11.597656 C 17.136719 -11.597656 17.398438 -11.335938 17.398438 -11.019531 L 17.398438 -9.277344 C 17.398438 -8.960938 17.136719 -8.699219 16.816406 -8.699219 Z M 2.898438 -8.699219 "/></g></g></g><g fill="#ffffff" fill-opacity="1"><g transform="translate(206.342878, 219.25153)"><g><path d="M 0.289062 0 L 2.609375 0 C 2.785156 0 2.898438 -0.117188 2.898438 -0.289062 L 2.898438 -14.207031 C 2.898438 -14.382812 2.785156 -14.496094 2.609375 -14.496094 L 0.289062 -14.496094 C 0.117188 -14.496094 0 -14.382812 0 -14.207031 L 0 -0.289062 C 0 -0.117188 0.117188 0 0.289062 0 Z M 0.289062 0 "/></g></g></g><g fill="#ffffff" fill-opacity="1"><g transform="translate(215.041314, 219.25153)"><g><path d="M 0.289062 0 L 17.339844 0 C 19.050781 0 20.296875 -1.246094 20.296875 -2.957031 L 20.296875 -5.742188 C 20.296875 -7.453125 19.050781 -8.699219 17.339844 -8.699219 L 3.480469 -8.699219 C 3.160156 -8.699219 2.898438 -8.960938 2.898438 -9.277344 L 2.898438 -11.019531 C 2.898438 -11.335938 3.160156 -11.597656 3.480469 -11.597656 L 20.007812 -11.597656 C 20.179688 -11.597656 20.296875 -11.714844 20.296875 -11.886719 L 20.296875 -14.207031 C 20.296875 -14.382812 20.179688 -14.496094 20.007812 -14.496094 L 2.957031 -14.496094 C 1.246094 -14.496094 0 -13.25 0 -11.539062 L 0 -8.757812 C 0 -7.046875 1.246094 -5.800781 2.957031 -5.800781 L 16.816406 -5.800781 C 17.136719 -5.800781 17.398438 -5.539062 17.398438 -5.21875 L 17.398438 -3.480469 C 17.398438 -3.160156 17.136719 -2.898438 16.816406 -2.898438 L 0.289062 -2.898438 C 0.117188 -2.898438 0 -2.785156 0 -2.609375 L 0 -0.289062 C 0 -0.117188 0.117188 0 0.289062 0 Z M 0.289062 0 "/></g></g></g><g fill="#ffffff" fill-opacity="1"><g transform="translate(241.135055, 219.25153)"><g><path d="M 8.988281 0 L 11.308594 0 C 11.480469 0 11.597656 -0.117188 11.597656 -0.289062 L 11.597656 -11.597656 L 20.007812 -11.597656 C 20.179688 -11.597656 20.296875 -11.714844 20.296875 -11.886719 L 20.296875 -14.207031 C 20.296875 -14.382812 20.179688 -14.496094 20.007812 -14.496094 L 0.289062 -14.496094 C 0.117188 -14.496094 0 -14.382812 0 -14.207031 L 0 -11.886719 C 0 -11.714844 0.117188 -11.597656 0.289062 -11.597656 L 8.699219 -11.597656 L 8.699219 -0.289062 C 8.699219 -0.117188 8.816406 0 8.988281 0 Z M 8.988281 0 "/></g></g></g><g fill="#ffffff" fill-opacity="1"><g transform="translate(267.228795, 219.25153)"><g><path d="M 0.289062 0 L 2.609375 0 C 2.785156 0 2.898438 -0.117188 2.898438 -0.289062 L 2.898438 -14.207031 C 2.898438 -14.382812 2.785156 -14.496094 2.609375 -14.496094 L 0.289062 -14.496094 C 0.117188 -14.496094 0 -14.382812 0 -14.207031 L 0 -0.289062 C 0 -0.117188 0.117188 0 0.289062 0 Z M 0.289062 0 "/></g></g></g><g fill="#ffffff" fill-opacity="1"><g transform="translate(275.927231, 219.25153)"><g><path d="M 2.957031 0 L 20.007812 0 C 20.179688 0 20.296875 -0.117188 20.296875 -0.289062 L 20.296875 -2.609375 C 20.296875 -2.785156 20.179688 -2.898438 20.007812 -2.898438 L 3.480469 -2.898438 C 3.160156 -2.898438 2.898438 -3.160156 2.898438 -3.480469 L 2.898438 -11.019531 C 2.898438 -11.335938 3.160156 -11.597656 3.480469 -11.597656 L 20.007812 -11.597656 C 20.179688 -11.597656 20.296875 -11.714844 20.296875 -11.886719 L 20.296875 -14.207031 C 20.296875 -14.382812 20.179688 -14.496094 20.007812 -14.496094 L 2.957031 -14.496094 C 1.246094 -14.496094 0 -13.25 0 -11.539062 L 0 -2.957031 C 0 -1.246094 1.246094 0 2.957031 0 Z M 2.957031 0 "/></g></g></g><g fill="#ffffff" fill-opacity="1"><g transform="translate(165.22328, 235.601497)"><g><path d="M 4.78125 -0.8125 L 1.765625 -0.8125 C 1.691406 -0.8125 1.65625 -0.847656 1.65625 -0.921875 L 1.65625 -6.53125 C 1.65625 -6.601562 1.691406 -6.640625 1.765625 -6.640625 L 4.78125 -6.640625 L 4.78125 -7.4375 L 2.171875 -7.4375 C 1.421875 -7.4375 0.960938 -7.207031 0.796875 -6.75 C 0.742188 -6.582031 0.71875 -6.378906 0.71875 -6.140625 L 0.71875 -1.296875 C 0.71875 -0.617188 0.988281 -0.210938 1.53125 -0.078125 C 1.71875 -0.0234375 1.929688 0 2.171875 0 L 4.78125 0 Z M 4.78125 -0.8125 "/></g></g></g><g fill="#ffffff" fill-opacity="1"><g transform="translate(177.462387, 235.601497)"><g><path d="M 6.03125 0 L 4.1875 -7.4375 L 3.21875 -7.46875 C 2.75 -7.46875 2.4375 -7.367188 2.28125 -7.171875 C 2.164062 -7.035156 2.054688 -6.769531 1.953125 -6.375 L 0.15625 0 L 1 0 L 1.53125 -1.96875 L 4.625 -1.96875 L 5.125 0 Z M 2.78125 -6.5625 C 2.800781 -6.625 2.835938 -6.660156 2.890625 -6.671875 L 3.5 -6.671875 L 4.46875 -2.75 L 1.734375 -2.75 Z M 2.78125 -6.5625 "/></g></g></g><g fill="#ffffff" fill-opacity="1"><g transform="translate(190.814775, 235.601497)"><g><path d="M 1.765625 0 L 1.765625 -3.0625 L 3.65625 -3.0625 C 3.75 -3.050781 3.8125 -3.007812 3.84375 -2.9375 L 4.859375 0 L 5.765625 0 L 4.90625 -2.4375 C 4.789062 -2.769531 4.660156 -3 4.515625 -3.125 C 5.191406 -3.289062 5.535156 -3.753906 5.546875 -4.515625 L 5.546875 -6.0625 C 5.523438 -7.019531 5.003906 -7.492188 3.984375 -7.484375 L 0.875 -7.4375 L 0.875 0 Z M 4.46875 -6.703125 C 4.550781 -6.691406 4.597656 -6.640625 4.609375 -6.546875 L 4.609375 -3.96875 C 4.585938 -3.875 4.539062 -3.828125 4.46875 -3.828125 L 1.765625 -3.828125 L 1.765625 -6.703125 Z M 4.46875 -6.703125 "/></g></g></g><g fill="#ffffff" fill-opacity="1"><g transform="translate(204.214037, 235.601497)"><g><path d="M 1.59375 -4.15625 C 1.5 -4.164062 1.445312 -4.210938 1.4375 -4.296875 L 1.4375 -6.515625 C 1.457031 -6.597656 1.507812 -6.644531 1.59375 -6.65625 L 4.890625 -6.65625 L 4.890625 -7.4375 L 2.109375 -7.484375 C 1.210938 -7.492188 0.691406 -7.140625 0.546875 -6.421875 C 0.523438 -6.296875 0.515625 -6.164062 0.515625 -6.03125 L 0.515625 -4.6875 C 0.515625 -3.957031 0.835938 -3.523438 1.484375 -3.390625 C 1.648438 -3.347656 1.84375 -3.328125 2.0625 -3.328125 L 4.015625 -3.328125 C 4.109375 -3.316406 4.15625 -3.269531 4.15625 -3.1875 L 4.15625 -0.921875 C 4.144531 -0.835938 4.097656 -0.789062 4.015625 -0.78125 L 0.609375 -0.78125 L 0.609375 0 L 3.546875 0.046875 C 4.566406 0.046875 5.082031 -0.429688 5.09375 -1.390625 L 5.09375 -2.765625 C 5.070312 -3.679688 4.539062 -4.144531 3.5 -4.15625 Z M 1.59375 -4.15625 "/></g></g></g></svg>